<svg xmlns="http://www.w3.org/2000/svg" width="256" height="256" fill="none"><path d="M 65.025 143.01 C 70.813 165.5 88.518 183.205 111.008 188.993 L 111.008 254.018 C 53.108 246.798 7.22 200.909 0 143.01 Z M 254.016 143.01 C 246.796 200.909 200.907 246.798 143.008 254.018 L 143.008 188.993 C 165.498 183.205 183.203 165.5 188.991 143.01 Z M 127.008 111.01 C 135.845 111.01 143.008 118.173 143.008 127.01 C 143.008 135.847 135.845 143.01 127.008 143.01 C 118.171 143.01 111.008 135.847 111.008 127.01 C 111.008 118.173 118.171 111.01 127.008 111.01 Z M 111.008 65.026 C 88.518 70.814 70.813 88.52 65.025 111.01 L 0 111.01 C 7.22 53.11 53.109 7.221 111.008 0.001 Z M 143.008 0 C 200.907 7.221 246.796 53.111 254.016 111.01 L 188.991 111.01 C 183.203 88.52 165.498 70.814 143.008 65.026 Z" fill="rgb(84, 84, 84)"></path></svg>