<svg xmlns="http://www.w3.org/2000/svg" width="256" height="256" fill="none"><path d="M 64 192 C 64 227.346 35.346 256 0 256 L 0 192 C 0 156.654 28.654 128 64 128 Z M 128 128 C 163.346 128 192 156.654 192 192 L 192 256 C 156.654 256 128 227.346 128 192 C 128 227.346 99.346 256 64 256 L 64 192 C 64 156.654 92.654 128 128 128 Z M 192 128 C 227.346 128 256 156.654 256 192 L 256 256 C 220.654 256 192 227.346 192 192 Z M 0 0 C 35.346 0 64 28.654 64 64 L 64 128 C 28.654 128 0 99.346 0 64 Z M 192 64 C 192 99.346 163.346 128 128 128 C 92.654 128 64 99.346 64 64 L 64 0 C 99.346 0 128 28.654 128 64 C 128 28.654 156.654 0 192 0 Z M 256 64 C 256 99.346 227.346 128 192 128 L 192 64 C 192 28.654 220.654 0 256 0 Z" fill="rgb(84, 84, 84)"></path></svg>