<svg xmlns="http://www.w3.org/2000/svg" width="256" height="256" fill="none"><path d="M 128.945 0 C 199.203 0.508 256 57.617 256 127.994 C 256 198.686 198.692 255.994 128 255.994 C 57.308 255.994 0 198.686 0 127.994 C 0 57.617 56.797 0.509 127.054 0 C 87.725 0.506 56 32.544 56 71.994 C 56 111.759 88.236 143.994 128 143.994 C 167.764 143.994 200 111.759 200 71.994 C 200 32.545 168.274 0.506 128.945 0 Z M 128 47.994 C 141.255 47.994 152 58.739 152 71.994 C 152 85.249 141.255 95.994 128 95.994 C 114.745 95.994 104 85.249 104 71.994 C 104 58.739 114.745 47.994 128 47.994 Z" fill="rgb(84, 84, 84)"></path></svg>