<svg xmlns="http://www.w3.org/2000/svg" width="256" height="256" fill="none"><path d="M 4.688 136 C 68.373 136 120 187.627 120 251.312 C 120 252.883 119.967 254.445 119.905 256 L 0 256 L 0 136.096 C 1.555 136.034 3.117 136 4.688 136 Z M 251.312 136 C 252.883 136 254.445 136.034 256 136.096 L 256 256 L 136.095 256 C 136.032 254.438 136.001 252.875 136 251.312 C 136 187.627 187.627 136 251.312 136 Z M 119.905 0 C 119.967 1.555 120 3.117 120 4.688 C 120 68.373 68.373 120 4.687 120 C 3.117 120 1.555 119.967 0 119.905 L 0 0 Z M 256 119.905 C 254.445 119.967 252.883 120 251.312 120 C 187.627 120 136 68.373 136 4.687 C 136 3.117 136.033 1.555 136.095 0 L 256 0 Z" fill="rgb(84, 84, 84)"></path></svg>