<svg xmlns="http://www.w3.org/2000/svg" width="256" height="256" fill="none"><path d="M 192 0 C 227.346 0 256 28.654 256 64 C 256 99.346 227.346 128 192 128 C 227.346 128 256 156.654 256 192 C 256 227.346 227.346 256 192 256 C 156.654 256 128 227.346 128 192 C 128 227.346 99.346 256 64 256 C 28.654 256 0 227.346 0 192 C 0 156.654 28.654 128 64 128 C 28.654 128 0 99.346 0 64 C 0 28.654 28.654 0 64 0 C 99.346 0 128 28.654 128 64 C 128 28.654 156.654 0 192 0 Z M 128 100 C 112.536 100 100 112.536 100 128 C 100 143.464 112.536 156 128 156 C 143.464 156 156 143.464 156 128 C 156 112.536 143.464 100 128 100 Z" fill="rgb(84, 84, 84)"></path></svg>