<svg xmlns="http://www.w3.org/2000/svg" width="256" height="256" fill="none"><path d="M 160 0 C 177.397 0 191.551 13.883 191.989 31.174 L 192.011 32.826 C 192.442 49.843 206.157 63.558 223.174 63.989 L 224.826 64.011 C 242.117 64.449 256 78.603 256 96 C 256 113.673 241.673 128 224 128 C 241.673 128 256 142.327 256 160 C 256 177.397 242.117 191.551 224.826 191.989 L 223.174 192.011 C 206.157 192.442 192.442 206.157 192.011 223.174 L 191.989 224.826 C 191.551 242.117 177.397 256 160 256 C 142.327 256 128 241.673 128 224 C 128 241.673 113.673 256 96 256 C 78.603 256 64.449 242.117 64.01 224.826 L 63.99 223.174 C 63.558 206.157 49.843 192.442 32.826 192.011 L 31.174 191.989 C 13.883 191.551 0 177.397 0 160 C 0 142.327 14.327 128 32 128 C 14.327 128 0 113.673 0 96 C 0 78.603 13.883 64.449 31.174 64.01 L 32.826 63.99 C 49.843 63.558 63.558 49.843 63.989 32.826 L 64.011 31.174 C 64.449 13.883 78.603 0 96 0 C 113.673 0 128 14.327 128 32 C 128 14.327 142.327 0 160 0 Z M 128 64 C 128 99.346 99.346 128 64 128 C 99.346 128 128 156.654 128 192 C 128 156.654 156.654 128 192 128 C 156.654 128 128 99.346 128 64 Z" fill="rgb(84, 84, 84)"></path></svg>