<svg xmlns="http://www.w3.org/2000/svg" width="256" height="256" fill="none"><path d="M 32 192 C 32 209.673 46.327 224 64 224 C 64 241.673 49.673 256 32 256 C 14.327 256 0 241.673 0 224 C 0 206.327 14.327 192 32 192 Z M 96 192 C 96 209.673 110.327 224 128 224 C 128 241.673 113.673 256 96 256 C 78.327 256 64 241.673 64 224 C 81.673 224 96 209.673 96 192 Z M 160 192 C 160 209.673 174.327 224 192 224 C 192 241.673 177.673 256 160 256 C 142.327 256 128 241.673 128 224 C 145.673 224 160 209.673 160 192 Z M 224 192 C 241.673 192 256 206.327 256 224 C 256 241.673 241.673 256 224 256 C 206.327 256 192 241.673 192 224 C 209.673 224 224 209.673 224 192 Z M 32 128 C 32 145.673 46.327 160 64 160 C 46.327 160 32 174.327 32 192 C 14.327 192 0 177.673 0 160 C 0 142.327 14.327 128 32 128 Z M 96 128 C 96 145.673 110.327 160 128 160 C 128 177.673 113.673 192 96 192 C 78.327 192 64 177.673 64 160 C 64 142.327 78.327 128 96 128 Z M 160 128 C 177.673 128 192 142.327 192 160 C 192 177.673 177.673 192 160 192 C 142.327 192 128 177.673 128 160 C 145.673 160 160 145.673 160 128 Z M 224 128 C 241.673 128 256 142.327 256 160 C 256 177.673 241.673 192 224 192 C 224 174.327 209.673 160 192 160 C 209.673 160 224 145.673 224 128 Z M 32 64 C 32 81.673 46.327 96 64 96 C 46.327 96 32 110.327 32 128 C 14.327 128 0 113.673 0 96 C 0 78.327 14.327 64 32 64 Z M 96 64 C 113.673 64 128 78.327 128 96 C 110.327 96 96 110.327 96 128 C 78.327 128 64 113.673 64 96 C 64 78.327 78.327 64 96 64 Z M 160 64 C 177.673 64 192 78.327 192 96 C 192 113.673 177.673 128 160 128 C 160 110.327 145.673 96 128 96 C 128 78.327 142.327 64 160 64 Z M 224 64 C 241.673 64 256 78.327 256 96 C 256 113.673 241.673 128 224 128 C 224 110.327 209.673 96 192 96 C 209.673 96 224 81.673 224 64 Z M 32 0 C 49.673 0 64 14.327 64 32 C 46.327 32 32 46.327 32 64 C 14.327 64 0 49.673 0 32 C 0 14.327 14.327 0 32 0 Z M 96 0 C 113.673 0 128 14.327 128 32 C 110.327 32 96 46.327 96 64 C 96 46.327 81.673 32 64 32 C 64 14.327 78.327 0 96 0 Z M 160 0 C 177.673 0 192 14.327 192 32 C 174.327 32 160 46.327 160 64 C 160 46.327 145.673 32 128 32 C 128 14.327 142.327 0 160 0 Z M 224 0 C 241.673 0 256 14.327 256 32 C 256 49.673 241.673 64 224 64 C 224 46.327 209.673 32 192 32 C 192 14.327 206.327 0 224 0 Z" fill="rgb(84, 84, 84)"></path></svg>