<svg xmlns="http://www.w3.org/2000/svg" width="256" height="256" fill="none"><path d="M 0 226.017 C 17.21 226.545 31 240.661 31 258 L 0 258 Z M 85 226 C 102.673 226 117 240.327 117 258 L 53 258 C 53 240.327 67.327 226 85 226 Z M 171 226 C 188.673 226 203 240.327 203 258 L 139 258 C 139 240.327 153.327 226 171 226 Z M 257 258 L 225 258 C 225 240.327 239.327 226 257 226 Z M 85 140 C 102.673 140 117 154.327 117 172 C 117 189.673 102.673 204 85 204 C 67.327 204 53 189.673 53 172 C 53 154.327 67.327 140 85 140 Z M 171 140 C 188.673 140 203 154.327 203 172 C 203 189.673 188.673 204 171 204 C 153.327 204 139 189.673 139 172 C 139 154.327 153.327 140 171 140 Z M 257 204 C 239.327 204 225 189.673 225 172 C 225 154.327 239.327 140 257 140 Z M 0 140.017 C 17.21 140.545 31 154.661 31 172 C 31 189.339 17.21 203.454 0 203.982 Z M 85 54 C 102.673 54 117 68.327 117 86 C 117 103.673 102.673 118 85 118 C 67.327 118 53 103.673 53 86 C 53 68.327 67.327 54 85 54 Z M 171 54 C 188.673 54 203 68.327 203 86 C 203 103.673 188.673 118 171 118 C 153.327 118 139 103.673 139 86 C 139 68.327 153.327 54 171 54 Z M 257 118 C 239.327 118 225 103.673 225 86 C 225 68.327 239.327 54 257 54 Z M 0 54.017 C 17.21 54.545 31 68.662 31 86 C 31 103.339 17.21 117.454 0 117.982 Z M 117 0 C 117 17.673 102.673 32 85 32 C 67.327 32 53 17.673 53 0 Z M 202.982 0 C 202.454 17.21 188.339 31 171 31 C 153.661 31 139.546 17.21 139.018 0 Z M 257 31 C 239.661 31 225.546 17.21 225.018 0 L 257 0 Z M 30.982 0 C 30.464 16.878 16.878 30.464 0 30.982 L 0 0 Z" fill="rgb(84, 84, 84)"></path></svg>