<svg xmlns="http://www.w3.org/2000/svg" width="256" height="256" fill="none"><path d="M 256 14 C 256 41.614 233.614 64 206 64 L 256 64 L 256 142 C 256 169.614 233.614 192 206 192 L 256 192 L 256 256 L 0 256 L 0 242 C 0 214.386 22.386 192 50 192 L 0 192 L 0 114 C 0 86.386 22.386 64 50 64 L 0 64 L 0 0 L 256 0 Z M 128 242 C 128 214.386 150.386 192 178 192 L 128 192 Z M 128 142 C 128 169.614 105.614 192 78 192 L 128 192 Z M 128 114 C 128 86.386 150.386 64 178 64 L 128 64 Z M 128 14 C 128 41.614 105.614 64 78 64 L 128 64 Z" fill="rgb(84, 84, 84)"></path></svg>