<svg xmlns="http://www.w3.org/2000/svg" width="256" height="256" fill="none"><path d="M 64 160 C 46.327 160 32 174.327 32 192 C 32 209.673 46.327 224 64 224 C 81.673 224 96 209.673 96 192 L 128 192 C 128 227.346 99.346 256 64 256 C 28.654 256 0 227.346 0 192 C 0 156.654 28.654 128 64 128 Z M 192 128 C 227.346 128 256 156.654 256 192 C 256 227.346 227.346 256 192 256 C 156.654 256 128 227.346 128 192 L 160 192 C 160 209.673 174.327 224 192 224 C 209.673 224 224 209.673 224 192 C 224 174.327 209.673 160 192 160 Z M 64 0 C 99.346 0 128 28.654 128 64 L 96 64 C 96 46.327 81.673 32 64 32 C 46.327 32 32 46.327 32 64 C 32 81.673 46.327 96 64 96 L 64 128 C 28.654 128 0 99.346 0 64 C 0 28.654 28.654 0 64 0 Z M 192 0 C 227.346 0 256 28.654 256 64 C 256 99.346 227.346 128 192 128 L 192 96 C 209.673 96 224 81.673 224 64 C 224 46.327 209.673 32 192 32 C 174.327 32 160 46.327 160 64 L 128 64 C 128 28.654 156.654 0 192 0 Z" fill="rgb(84, 84, 84)"></path></svg>