<svg xmlns="http://www.w3.org/2000/svg" width="256" height="256" fill="none"><path d="M 191.173 128.005 C 156.208 128.448 128 156.93 128 192 C 128 227.346 156.654 256 192 256 L 256 256 L 256 216 L 192 216 C 178.745 216 168 205.255 168 192 C 168 178.745 178.745 168 192 168 L 256 168 L 256 88 L 192 88 C 178.745 88 168 77.255 168 64 C 168 50.745 178.745 40 192 40 L 256 40 L 256 0 L 192 0 C 156.654 0 128 28.654 128 64 C 128 99.346 156.654 128 192 128 Z M 0 40 L 64 40 C 77.255 40 88 50.745 88 64 C 88 77.255 77.255 88 64 88 L 0 88 L 0 168 L 64 168 C 77.255 168 88 178.745 88 192 C 88 205.255 77.255 216 64 216 L 0 216 L 0 256 L 64 256 C 99.346 256 128 227.346 128 192 C 128 156.93 99.792 128.448 64.827 128.005 L 64 128 C 99.346 128 128 99.346 128 64 C 128 28.654 99.346 0 64 0 L 0 0 Z" fill="rgb(84, 84, 84)"></path></svg>