<svg xmlns="http://www.w3.org/2000/svg" width="256" height="256" fill="none"><path d="M 100 136 C 111.046 136 120 144.954 120 156 L 120 256 L 100 256 C 44.772 256 0 211.228 0 156 L 0 136 Z M 256 256 L 136 256 L 136 156 C 136 144.954 144.954 136 156 136 L 256 136 Z M 120 100 C 120 111.046 111.046 120 100 120 L 0 120 L 0 100 C 0 44.772 44.772 0 100 0 L 120 0 Z M 156 0 C 211.228 0 256 44.772 256 100 L 256 120 L 156 120 C 144.954 120 136 111.046 136 100 L 136 0 Z" fill="rgb(84, 84, 84)"></path></svg>